<?xml version="1.0" encoding="UTF-8" standalone="no"?>
<!-- Created with Inkscape (http://www.inkscape.org/) -->

<svg
   width="67.73333mm"
   height="67.73333mm"
   viewBox="0 0 67.73333 67.73333"
   version="1.1"
   id="svg1"
   xml:space="preserve"
   inkscape:version="1.3.2 (091e20ef0f, 2023-11-25, custom)"
   sodipodi:docname="hyprland.svg"
   xmlns:inkscape="http://www.inkscape.org/namespaces/inkscape"
   xmlns:sodipodi="http://sodipodi.sourceforge.net/DTD/sodipodi-0.dtd"
   xmlns="http://www.w3.org/2000/svg"
   xmlns:svg="http://www.w3.org/2000/svg"><sodipodi:namedview
     id="namedview1"
     pagecolor="#505050"
     bordercolor="#eeeeee"
     borderopacity="1"
     inkscape:showpageshadow="0"
     inkscape:pageopacity="0"
     inkscape:pagecheckerboard="0"
     inkscape:deskcolor="#505050"
     inkscape:document-units="mm"
     inkscape:zoom="1.7512003"
     inkscape:cx="143.04474"
     inkscape:cy="168.45588"
     inkscape:window-width="1590"
     inkscape:window-height="865"
     inkscape:window-x="0"
     inkscape:window-y="0"
     inkscape:window-maximized="1"
     inkscape:current-layer="layer1" /><defs
     id="defs1" /><g
     inkscape:label="Layer 1"
     inkscape:groupmode="layer"
     id="layer1"
     transform="translate(-77.892273,-104.60757)"><path
       style="fill:#ffffff;fill-opacity:1"
       d="m 107.89829,168.90688 c -5.82333,-0.82704 -11.615158,-4.35242 -15.096032,-9.18867 -3.641362,-5.05924 -5.117561,-10.82904 -4.328613,-16.91862 0.961671,-7.42277 3.693749,-12.70987 12.145565,-23.50403 1.22195,-1.5606 3.5211,-4.70015 5.10924,-6.97679 1.58813,-2.27663 2.99937,-4.17902 3.13608,-4.22752 0.14811,-0.0525 0.24857,1.56093 0.24857,3.99211 v 4.08032 l -2.3151,3.33242 c -1.27331,1.83283 -3.45573,4.79888 -4.84983,6.59121 -3.600867,4.62949 -5.086372,6.90106 -6.564047,10.03745 -1.817432,3.85754 -2.281367,5.9377 -2.264782,10.15468 0.01171,2.97858 0.105783,3.7154 0.70186,5.49753 2.674632,7.99648 9.535559,12.89101 18.070029,12.89101 7.37663,0 13.36839,-3.5243 16.64356,-9.78958 2.57516,-4.92619 2.88493,-10.21019 0.93681,-15.97976 -1.40945,-4.17424 -3.08544,-6.8658 -9.24323,-14.8442 -0.89851,-1.16417 -2.51985,-3.39032 -3.60296,-4.94701 l -1.9693,-2.83034 0.0728,-4.31341 0.0728,-4.3134 2.28277,3.33843 c 2.42952,3.55303 4.9193,6.91958 8.29322,11.21365 4.33279,5.51445 7.56559,11.11264 8.85397,15.33229 0.70945,2.32356 1.34087,6.48587 1.33635,8.80919 -0.0122,6.27347 -3.50487,13.39995 -8.66482,17.67976 -2.05685,1.70601 -5.66912,3.54785 -8.52962,4.34912 -2.26048,0.63319 -7.79191,0.91526 -10.47523,0.53416 z"
       id="path1"
       inkscape:label="path1" /></g></svg>
